name Walk5.mot
datacolumns 19
datarows 12
range 2.62600000 2.63700000
endheader

                time	   L_ground_force_vx	   L_ground_force_vy	   L_ground_force_vz	   L_ground_force_px	   L_ground_force_py	   L_ground_force_pz	   R_ground_force_vx	   R_ground_force_vy	   R_ground_force_vz	   R_ground_force_px	   R_ground_force_py	   R_ground_force_pz	   L_ground_torque_x	   L_ground_torque_y	   L_ground_torque_z	   R_ground_torque_x	   R_ground_torque_y	   R_ground_torque_z	
          2.62600000	         12.50194417	        747.23195204	         53.15264225	         -0.34078368	          0.00000000	         -0.11057576	         -0.00247186	          0.07531279	          0.01898237	          0.00004491	          0.00000000	          0.00003635	          0.00000000	          1.92989542	          0.00000000	          0.00000000	         -0.00241238	          0.00000000	
          2.62700000	         12.91521554	        748.10614430	         53.28232087	         -0.34046444	          0.00000000	         -0.11061042	         -0.00301451	          0.08352256	          0.02024506	          0.00004824	          0.00000000	          0.00003898	          0.00000000	          1.93281674	          0.00000000	          0.00000000	         -0.00252876	          0.00000000	
          2.62800000	         13.33452033	        748.98844190	         53.41260184	         -0.34014835	          0.00000000	         -0.11064437	         -0.00359515	          0.09215029	          0.02154148	          0.00005168	          0.00000000	          0.00004169	          0.00000000	          1.93545422	          0.00000000	          0.00000000	         -0.00264552	          0.00000000	
          2.62900000	         13.75995360	        749.87900741	         53.54344869	         -0.33983544	          0.00000000	         -0.11067764	         -0.00421489	          0.10119917	          0.02286940	          0.00005523	          0.00000000	          0.00004448	          0.00000000	          1.93781207	          0.00000000	          0.00000000	         -0.00276220	          0.00000000	
          2.63000000	         14.19160699	        750.77798912	         53.67482667	         -0.33952571	          0.00000000	         -0.11071022	         -0.00487481	          0.11067098	          0.02422627	          0.00005888	          0.00000000	          0.00004735	          0.00000000	          1.93989368	          0.00000000	          0.00000000	         -0.00287831	          0.00000000	
          2.63100000	         14.62956877	        751.68552156	         53.80670278	         -0.33921919	          0.00000000	         -0.11074215	         -0.00557592	          0.12056589	          0.02560918	          0.00006263	          0.00000000	          0.00005028	          0.00000000	          1.94170168	          0.00000000	          0.00000000	         -0.00299332	          0.00000000	
          2.63200000	         15.07392360	        752.60172615	         53.93904573	         -0.33891589	          0.00000000	         -0.11077342	         -0.00631916	          0.13088237	          0.02701482	          0.00006647	          0.00000000	          0.00005329	          0.00000000	          1.94323808	          0.00000000	          0.00000000	         -0.00310666	          0.00000000	
          2.63300000	         15.52475205	        753.52671124	         54.07182577	         -0.33861582	          0.00000000	         -0.11080406	         -0.00710537	          0.14161697	          0.02843952	          0.00007038	          0.00000000	          0.00005635	          0.00000000	          1.94450450	          0.00000000	          0.00000000	         -0.00321771	          0.00000000	
          2.63400000	         15.98213013	        754.46057127	         54.20501435	         -0.33831899	          0.00000000	         -0.11083408	         -0.00793529	          0.15276422	          0.02987916	          0.00007437	          0.00000000	          0.00005946	          0.00000000	          1.94550234	          0.00000000	          0.00000000	         -0.00332578	          0.00000000	
          2.63500000	         16.44612864	        755.40338534	         54.33858365	         -0.33802541	          0.00000000	         -0.11086350	         -0.00880955	          0.16431642	          0.03132917	          0.00007843	          0.00000000	          0.00006262	          0.00000000	          1.94623276	          0.00000000	          0.00000000	         -0.00343016	          0.00000000	
          2.63600000	         16.91681273	        756.35521569	         54.47250603	         -0.33773509	          0.00000000	         -0.11089233	         -0.00972868	          0.17626350	          0.03278455	          0.00008254	          0.00000000	          0.00006581	          0.00000000	          1.94669666	          0.00000000	          0.00000000	         -0.00353007	          0.00000000	
          2.63700000	         17.39424157	        757.31610634	         54.60675341	         -0.33744804	          0.00000000	         -0.11092058	         -0.01069303	          0.18859282	          0.03423976	          0.00008669	          0.00000000	          0.00006903	          0.00000000	          1.94689433	          0.00000000	          0.00000000	         -0.00362469	          0.00000000	
